<svg width="29" height="27" viewBox="0 0 29 27" fill="none" xmlns="http://www.w3.org/2000/svg">
<path d="M17.342 0.0792288C17.5795 0.153154 17.8016 0.278428 17.9955 0.447889C18.1894 0.61735 18.3514 0.827676 18.4723 1.06684C18.5931 1.30601 18.6704 1.56933 18.6997 1.84175C18.729 2.11418 18.7098 2.39036 18.6432 2.65451L13.0996 24.6307C12.9653 25.164 12.646 25.6161 12.212 25.8875C11.7781 26.1588 11.2651 26.2273 10.7858 26.0778C10.3065 25.9282 9.9002 25.573 9.65631 25.0902C9.41242 24.6073 9.3509 24.0365 9.48528 23.5032L15.0288 1.52417C15.0954 1.26008 15.2081 1.01316 15.3604 0.797533C15.5128 0.581905 15.7018 0.401789 15.9168 0.267476C16.1317 0.133163 16.3683 0.047284 16.6131 0.014745C16.8578 -0.0177939 17.106 0.00364509 17.3433 0.0778369L17.342 0.0792288ZM8.50944 5.69613C8.86086 6.08765 9.05826 6.61836 9.05826 7.1717C9.05826 7.72504 8.86086 8.25576 8.50944 8.64727L4.53101 13.0781L8.51194 17.5076C8.86382 17.8994 9.06144 18.4306 9.06132 18.9844C9.0612 19.5382 8.86336 20.0693 8.51131 20.4609C8.15927 20.8524 7.68185 21.0723 7.1841 21.0721C6.68635 21.072 6.20903 20.8519 5.85715 20.4602L0.548823 14.5537C0.197394 14.1622 0 13.6315 0 13.0781C0 12.5248 0.197394 11.9941 0.548823 11.6026L5.8559 5.69613C6.03017 5.5021 6.2371 5.34817 6.46486 5.24315C6.69262 5.13813 6.93675 5.08408 7.18329 5.08408C7.42983 5.08408 7.67396 5.13813 7.90172 5.24315C8.12948 5.34817 8.33516 5.5021 8.50944 5.69613ZM19.619 8.64727C19.4346 8.45611 19.2868 8.22558 19.1842 7.96945C19.0816 7.71331 19.0265 7.43682 19.022 7.15645C19.0176 6.87608 19.0639 6.59759 19.1583 6.33759C19.2527 6.07759 19.3932 5.84141 19.5714 5.64313C19.7496 5.44485 19.9618 5.28854 20.1955 5.18352C20.4292 5.0785 20.6795 5.02692 20.9314 5.03187C21.1834 5.03682 21.4319 5.09819 21.6621 5.21231C21.8923 5.32644 22.0995 5.49098 22.2713 5.69613L27.5796 11.6012C27.9314 11.9928 28.1291 12.5238 28.1291 13.0775C28.1291 13.6311 27.9314 14.1621 27.5796 14.5537L22.2726 20.4602C22.0983 20.6541 21.8915 20.808 21.6638 20.913C21.4361 21.018 21.1921 21.0721 20.9456 21.0721C20.6991 21.0722 20.4551 21.0183 20.2274 20.9134C19.9996 20.8085 19.7927 20.6547 19.6184 20.4609C19.4441 20.267 19.3058 20.0368 19.2114 19.7835C19.117 19.5302 19.0684 19.2586 19.0684 18.9844C19.0683 18.7102 19.1168 18.4386 19.2111 18.1852C19.3053 17.9318 19.4435 17.7016 19.6178 17.5076L23.5987 13.0781L19.619 8.64727Z" fill="black"/>
</svg>
