<svg width="30" height="30" viewBox="0 0 30 30" fill="none" xmlns="http://www.w3.org/2000/svg">
<path d="M14.5312 21.973C10.9247 21.973 7.30313 21.0477 5.59219 19.0508C5.54156 19.273 5.50781 19.5008 5.50781 19.7427V23.3774C5.50781 26.5977 10.1841 28.063 14.5312 28.063C18.8784 28.063 23.5547 26.5977 23.5547 23.3774V19.7427C23.5547 19.5008 23.5209 19.274 23.4703 19.0518C21.7584 21.0486 18.1378 21.9749 14.5303 21.9749L14.5312 21.973ZM14.5312 14.9465C10.9247 14.9465 7.30313 14.0211 5.59313 12.0243C5.53917 12.2504 5.51086 12.4818 5.50875 12.7143V16.349C5.50875 19.5683 10.1841 21.0336 14.5312 21.0336C18.8784 21.0336 23.5547 19.5683 23.5547 16.348V12.7124C23.5547 12.4715 23.5209 12.2436 23.4703 12.0215C21.7584 14.0183 18.1378 14.9446 14.5303 14.9446L14.5312 14.9465ZM14.5312 0.999268C10.1841 0.999268 5.50781 2.46646 5.50781 5.68677V9.32145C5.50781 12.5418 10.1841 14.0071 14.5312 14.0071C18.8784 14.0071 23.5547 12.5427 23.5547 9.32239V5.68771C23.5547 2.46739 18.8784 1.00021 14.5312 1.00021V0.999268ZM14.5312 8.49927C10.5844 8.49927 7.38281 7.24021 7.38281 5.68677C7.38281 4.13427 10.5834 2.87427 14.5312 2.87427C18.4791 2.87427 21.6797 4.13427 21.6797 5.68677C21.6797 7.24114 18.4791 8.49927 14.5312 8.49927Z" fill="black"/>
</svg>
