<svg width="30" height="30" viewBox="0 0 30 30" fill="none" xmlns="http://www.w3.org/2000/svg">
<path d="M27.325 15.625C26.4222 14.5592 25.14 13.8868 23.75 13.75C23.75 11.3125 22.9 9.25 21.2 7.55C19.5 5.85 17.4375 5 15 5C13.025 5 11.25 5.5875 9.6875 6.7875C8.125 7.9875 7.0875 9.525 6.5625 11.4375C5 11.7875 3.7 12.6 2.7125 13.875C1.725 15.15 1.25 16.6 1.25 18.225C1.25 20.1125 1.925 21.725 3.2625 23.0375C4.6125 24.375 6.25 25 8.125 25H23.125C24.6875 25 26.0125 24.45 27.1125 23.3625C28.2 22.2625 28.75 20.9375 28.75 19.375C28.75 17.9375 28.275 16.6875 27.325 15.625ZM13.125 20.225L11.3625 22L5.625 16.25L11.3625 10.5L13.125 12.275L9.15 16.25L13.125 20.225ZM18.6375 22L16.875 20.225L20.85 16.25L16.875 12.275L18.6375 10.5L24.375 16.25L18.6375 22Z" fill="black"/>
</svg>
