<svg width="50" height="50" viewBox="0 0 50 50" fill="none" xmlns="http://www.w3.org/2000/svg">
<path d="M25.0021 4.16675C13.4917 4.16675 4.16875 13.4897 4.16875 25.0001C4.16498 29.3736 5.53908 33.6372 8.09595 37.1855C10.6528 40.7338 14.2625 43.3864 18.4125 44.7667C19.4542 44.948 19.8458 44.323 19.8458 43.7751C19.8458 43.2813 19.8187 41.6417 19.8187 39.8959C14.5854 40.8605 13.2313 38.6209 12.8146 37.448C12.5792 36.848 11.5646 35.0001 10.6792 34.5042C9.95 34.1147 8.90833 33.1501 10.6521 33.1251C12.2938 33.098 13.4646 34.6355 13.8563 35.2605C15.7313 38.4105 18.725 37.5251 19.9229 36.9792C20.1062 35.6251 20.6521 34.7147 21.2521 34.1938C16.6167 33.673 11.7729 31.8751 11.7729 23.9063C11.7729 21.6397 12.5792 19.7667 13.9083 18.3084C13.7 17.7876 12.9708 15.6522 14.1167 12.7876C14.1167 12.7876 15.8604 12.2397 19.8458 14.9209C21.542 14.4514 23.2942 14.2152 25.0542 14.2188C26.825 14.2188 28.5958 14.4522 30.2625 14.9209C34.2479 12.2126 35.9917 12.7876 35.9917 12.7876C37.1375 15.6522 36.4083 17.7876 36.2 18.3084C37.5271 19.7667 38.3354 21.6147 38.3354 23.9063C38.3354 31.9022 33.4667 33.673 28.8312 34.1938C29.5854 34.8438 30.2375 36.0938 30.2375 38.048C30.2375 40.8334 30.2104 43.073 30.2104 43.7772C30.2104 44.323 30.6021 44.973 31.6437 44.7647C35.7782 43.367 39.3705 40.7086 41.9157 37.1634C44.461 33.6182 45.8311 29.3643 45.8333 25.0001C45.8333 13.4897 36.5104 4.16675 25 4.16675" fill="white"/>
</svg>
