<svg width="50" height="50" viewBox="0 0 50 50" fill="none" xmlns="http://www.w3.org/2000/svg">
<g id="icon-park-solid:people">
<path id="Vector" d="M25 20.8333C25.9576 20.8333 26.9057 20.6447 27.7904 20.2783C28.6751 19.9118 29.4789 19.3747 30.156 18.6977C30.8331 18.0206 31.3702 17.2167 31.7366 16.3321C32.1031 15.4474 32.2917 14.4992 32.2917 13.5417C32.2917 12.5841 32.1031 11.6359 31.7366 10.7513C31.3702 9.8666 30.8331 9.06277 30.156 8.38568C29.4789 7.70859 28.6751 7.17149 27.7904 6.80504C26.9057 6.4386 25.9576 6.25 25 6.25C23.0661 6.25 21.2115 7.01823 19.844 8.38568C18.4766 9.75313 17.7083 11.6078 17.7083 13.5417C17.7083 15.4755 18.4766 17.3302 19.844 18.6977C21.2115 20.0651 23.0661 20.8333 25 20.8333ZM6.25 42.5V43.75H43.75V42.5C43.75 37.8333 43.75 35.5 42.8417 33.7167C42.0427 32.1487 40.7679 30.8739 39.2 30.075C37.4167 29.1667 35.0833 29.1667 30.4167 29.1667H19.5833C14.9167 29.1667 12.5833 29.1667 10.8 30.075C9.23205 30.8739 7.95727 32.1487 7.15833 33.7167C6.25 35.5 6.25 37.8333 6.25 42.5Z" fill="black" stroke="black" stroke-width="1.66667" stroke-linecap="round" stroke-linejoin="round"/>
</g>
</svg>
