<svg width="46" height="46" viewBox="0 0 46 46" fill="none" xmlns="http://www.w3.org/2000/svg">
<g id="Group">
<path id="Vector" d="M27.1666 43.8335V35.5002C27.1666 34.3951 26.7277 33.3353 25.9463 32.5539C25.1649 31.7725 24.105 31.3335 23 31.3335C21.8949 31.3335 20.8351 31.7725 20.0537 32.5539C19.2723 33.3353 18.8333 34.3951 18.8333 35.5002V43.8335" stroke="black" stroke-width="4.16667" stroke-linecap="round" stroke-linejoin="round"/>
<path id="Vector_2" d="M35.5 18.8334L43.8333 23.0001V39.6667C43.8333 40.7718 43.3943 41.8316 42.6129 42.613C41.8315 43.3944 40.7717 43.8334 39.6667 43.8334H6.33332C5.22825 43.8334 4.16845 43.3944 3.38704 42.613C2.60564 41.8316 2.16666 40.7718 2.16666 39.6667V23.0001L10.5 18.8334M35.5 8.41675V43.8334M6.33332 10.5001L23 2.16675L39.6667 10.5001M10.5 8.41675V43.8334" stroke="black" stroke-width="4.16667" stroke-linecap="round" stroke-linejoin="round"/>
<path id="Vector_3" d="M23 20.9168C25.3012 20.9168 27.1666 19.0513 27.1666 16.7502C27.1666 14.449 25.3012 12.5835 23 12.5835C20.6988 12.5835 18.8333 14.449 18.8333 16.7502C18.8333 19.0513 20.6988 20.9168 23 20.9168Z" stroke="black" stroke-width="4.16667" stroke-linecap="round" stroke-linejoin="round"/>
</g>
</svg>
