<svg width="20" height="20" viewBox="0 0 20 20" fill="none" xmlns="http://www.w3.org/2000/svg">
<path d="M3.125 4C2.09125 4 1.25 4.84125 1.25 5.875V13.375C1.25 14.4087 2.09125 15.25 3.125 15.25L6.99 15.2375C7.60875 15.2375 8.20812 15.4312 8.72312 15.775L10 16.625L11.2769 15.7744C11.7901 15.4322 12.3931 15.2495 13.01 15.2494H16.875C17.9088 15.2494 18.75 14.4081 18.75 13.3744V5.875C18.75 4.84125 17.9088 4 16.875 4H13.01C12.1438 4 11.3038 4.255 10.5837 4.735L10 5.12437L9.41625 4.735C8.69776 4.25592 7.85357 4.00018 6.99 4H3.125ZM3.125 5.25H6.99C7.60875 5.25 8.20812 5.43125 8.72312 5.775L10 6.625L11.2769 5.77437C11.7902 5.43238 12.3932 5.24992 13.01 5.25H16.875C17.22 5.25 17.5 5.53062 17.5 5.875V13.375C17.5 13.7194 17.22 14 16.875 14H13.01C12.1438 14 11.3038 14.255 10.5837 14.735L10 15.1244L9.41625 14.735C8.69776 14.2559 7.85357 14.0002 6.99 14H3.125C2.78 14 2.5 13.7194 2.5 13.375V5.875C2.5 5.53062 2.78 5.25 3.125 5.25ZM3.75 7.75V9H8.75V7.75H3.75ZM11.25 7.75V9H16.25V7.75H11.25ZM3.75 10.25V11.5H8.75V10.25H3.75ZM11.25 10.25V11.5H16.25V10.25H11.25Z" fill="black"/>
</svg>
