<svg width="21" height="20" viewBox="0 0 21 20" fill="none" xmlns="http://www.w3.org/2000/svg">
<mask id="mask0_151_769" style="mask-type:luminance" maskUnits="userSpaceOnUse" x="0" y="2" width="19" height="16">
<path d="M16.4167 3.33331H2.25C1.55964 3.33331 1 3.89296 1 4.58331V15.4166C1 16.107 1.55964 16.6666 2.25 16.6666H16.4167C17.107 16.6666 17.6667 16.107 17.6667 15.4166V4.58331C17.6667 3.89296 17.107 3.33331 16.4167 3.33331Z" stroke="white" stroke-width="1.66667" stroke-linejoin="round"/>
<path d="M1 4.58331C1 4.25179 1.1317 3.93385 1.36612 3.69943C1.60054 3.46501 1.91848 3.33331 2.25 3.33331H16.4167C16.7482 3.33331 17.0661 3.46501 17.3005 3.69943C17.535 3.93385 17.6667 4.25179 17.6667 4.58331V8.33331H1V4.58331Z" fill="#555555" stroke="white" stroke-width="1.66667"/>
<path d="M2.66667 5.83329C2.66667 5.37306 3.03977 4.99996 3.5 4.99996C3.96024 4.99996 4.33334 5.37306 4.33334 5.83329C4.33334 6.29353 3.96024 6.66663 3.5 6.66663C3.03977 6.66663 2.66667 6.29353 2.66667 5.83329Z" fill="white"/>
<path d="M5.16667 5.83329C5.16667 5.37306 5.53977 4.99996 6 4.99996C6.46024 4.99996 6.83334 5.37306 6.83334 5.83329C6.83334 6.29353 6.46024 6.66663 6 6.66663C5.53977 6.66663 5.16667 6.29353 5.16667 5.83329Z" fill="white"/>
</mask>
<g mask="url(#mask0_151_769)">
<path d="M-0.666664 0H19.3333V20H-0.666664V0Z" fill="black"/>
</g>
</svg>
